<svg width="151" height="42" viewBox="0 0 151 42" fill="none" xmlns="http://www.w3.org/2000/svg">
<rect width="151" height="42" rx="8" fill="#E62872"/>
<path d="M20.5802 21.1867C20.3002 21.1867 20.0135 21.1733 19.7335 21.1467L17.6202 20.9533C17.3469 20.9267 17.1402 20.6867 17.1669 20.4067C17.1935 20.1333 17.4269 19.9267 17.7135 19.9533L19.8269 20.1467C23.0935 20.4467 26.2669 18.7933 27.9002 15.94C28.0402 15.7 28.3402 15.62 28.5802 15.7533C28.8202 15.8933 28.9002 16.1933 28.7669 16.4333C27.0869 19.3867 23.9335 21.1867 20.5802 21.1867Z" fill="white"/>
<path d="M19.6665 26.4133C19.5799 26.4133 19.4999 26.3933 19.4199 26.3467C19.1799 26.2067 19.0998 25.9067 19.2332 25.6667C21.0598 22.4733 24.6065 20.62 28.2665 20.96L30.3799 21.1533C30.6532 21.18 30.8599 21.42 30.8332 21.7C30.8065 21.9733 30.5732 22.1733 30.2865 22.1533L28.1732 21.96C24.9065 21.66 21.7332 23.3133 20.0999 26.1667C20.0065 26.3267 19.8399 26.4133 19.6665 26.4133Z" fill="white"/>
<path d="M24.0002 28.1667C20.0468 28.1667 16.8335 24.9533 16.8335 21C16.8335 17.0467 20.0468 13.8333 24.0002 13.8333C27.9535 13.8333 31.1668 17.0467 31.1668 21C31.1668 24.9533 27.9535 28.1667 24.0002 28.1667ZM24.0002 14.8333C20.6002 14.8333 17.8335 17.6 17.8335 21C17.8335 24.4 20.6002 27.1667 24.0002 27.1667C27.4002 27.1667 30.1668 24.4 30.1668 21C30.1668 17.6 27.4002 14.8333 24.0002 14.8333Z" fill="white"/>
<path d="M26.9799 27.4667C26.7533 27.4667 26.5533 27.3133 26.4933 27.0867L25.6866 23.76C25.1733 21.6533 24.1866 19.6467 22.8199 17.9533L20.7 15.32C20.5266 15.1067 20.5599 14.7933 20.7733 14.62C20.9866 14.4467 21.3 14.48 21.4733 14.6933L23.5933 17.3267C25.0466 19.1333 26.1066 21.2733 26.6533 23.52L27.46 26.8467C27.5266 27.1133 27.36 27.3867 27.0933 27.4533C27.06 27.46 27.0199 27.4667 26.9799 27.4667Z" fill="white"/>
<path d="M47.7441 23.7051L50.2578 16.4688H51.4824L48.3242 25H47.4512L47.7441 23.7051ZM45.3945 16.4688L47.8848 23.7051L48.1953 25H47.3223L44.1699 16.4688H45.3945ZM53.6445 18.6602V25H52.5547V18.6602H53.6445ZM52.4727 16.9785C52.4727 16.8027 52.5254 16.6543 52.6309 16.5332C52.7402 16.4121 52.9004 16.3516 53.1113 16.3516C53.3184 16.3516 53.4766 16.4121 53.5859 16.5332C53.6992 16.6543 53.7559 16.8027 53.7559 16.9785C53.7559 17.1465 53.6992 17.291 53.5859 17.4121C53.4766 17.5293 53.3184 17.5879 53.1113 17.5879C52.9004 17.5879 52.7402 17.5293 52.6309 17.4121C52.5254 17.291 52.4727 17.1465 52.4727 16.9785ZM59.0762 23.3184C59.0762 23.1621 59.041 23.0176 58.9707 22.8848C58.9043 22.748 58.7656 22.625 58.5547 22.5156C58.3477 22.4023 58.0352 22.3047 57.6172 22.2227C57.2656 22.1484 56.9473 22.0605 56.6621 21.959C56.3809 21.8574 56.1406 21.7344 55.9414 21.5898C55.7461 21.4453 55.5957 21.2754 55.4902 21.0801C55.3848 20.8848 55.332 20.6562 55.332 20.3945C55.332 20.1445 55.3867 19.9082 55.4961 19.6855C55.6094 19.4629 55.7676 19.2656 55.9707 19.0938C56.1777 18.9219 56.4258 18.7871 56.7148 18.6895C57.0039 18.5918 57.3262 18.543 57.6816 18.543C58.1895 18.543 58.623 18.6328 58.9824 18.8125C59.3418 18.9922 59.6172 19.2324 59.8086 19.5332C60 19.8301 60.0957 20.1602 60.0957 20.5234H59.0117C59.0117 20.3477 58.959 20.1777 58.8535 20.0137C58.752 19.8457 58.6016 19.707 58.4023 19.5977C58.207 19.4883 57.9668 19.4336 57.6816 19.4336C57.3809 19.4336 57.1367 19.4805 56.9492 19.5742C56.7656 19.6641 56.6309 19.7793 56.5449 19.9199C56.4629 20.0605 56.4219 20.209 56.4219 20.3652C56.4219 20.4824 56.4414 20.5879 56.4805 20.6816C56.5234 20.7715 56.5977 20.8555 56.7031 20.9336C56.8086 21.0078 56.957 21.0781 57.1484 21.1445C57.3398 21.2109 57.584 21.2773 57.8809 21.3438C58.4004 21.4609 58.8281 21.6016 59.1641 21.7656C59.5 21.9297 59.75 22.1309 59.9141 22.3691C60.0781 22.6074 60.1602 22.8965 60.1602 23.2363C60.1602 23.5137 60.1016 23.7676 59.9844 23.998C59.8711 24.2285 59.7051 24.4277 59.4863 24.5957C59.2715 24.7598 59.0137 24.8887 58.7129 24.9824C58.416 25.0723 58.082 25.1172 57.7109 25.1172C57.1523 25.1172 56.6797 25.0176 56.293 24.8184C55.9062 24.6191 55.6133 24.3613 55.4141 24.0449C55.2148 23.7285 55.1152 23.3945 55.1152 23.043H56.2051C56.2207 23.3398 56.3066 23.5762 56.4629 23.752C56.6191 23.9238 56.8105 24.0469 57.0371 24.1211C57.2637 24.1914 57.4883 24.2266 57.7109 24.2266C58.0078 24.2266 58.2559 24.1875 58.4551 24.1094C58.6582 24.0312 58.8125 23.9238 58.918 23.7871C59.0234 23.6504 59.0762 23.4941 59.0762 23.3184ZM62.7617 18.6602V25H61.6719V18.6602H62.7617ZM61.5898 16.9785C61.5898 16.8027 61.6426 16.6543 61.748 16.5332C61.8574 16.4121 62.0176 16.3516 62.2285 16.3516C62.4355 16.3516 62.5938 16.4121 62.7031 16.5332C62.8164 16.6543 62.873 16.8027 62.873 16.9785C62.873 17.1465 62.8164 17.291 62.7031 17.4121C62.5938 17.5293 62.4355 17.5879 62.2285 17.5879C62.0176 17.5879 61.8574 17.5293 61.748 17.4121C61.6426 17.291 61.5898 17.1465 61.5898 16.9785ZM67.1562 18.6602V19.4922H63.7285V18.6602H67.1562ZM64.8887 17.1191H65.9727V23.4297C65.9727 23.6445 66.0059 23.8066 66.0723 23.916C66.1387 24.0254 66.2246 24.0977 66.3301 24.1328C66.4355 24.168 66.5488 24.1855 66.6699 24.1855C66.7598 24.1855 66.8535 24.1777 66.9512 24.1621C67.0527 24.1426 67.1289 24.127 67.1797 24.1152L67.1855 25C67.0996 25.0273 66.9863 25.0527 66.8457 25.0762C66.709 25.1035 66.543 25.1172 66.3477 25.1172C66.082 25.1172 65.8379 25.0645 65.6152 24.959C65.3926 24.8535 65.2148 24.6777 65.082 24.4316C64.9531 24.1816 64.8887 23.8457 64.8887 23.4238V17.1191ZM71.9258 16.4688H73.0215L75.8164 23.4238L78.6055 16.4688H79.707L76.2383 25H75.3828L71.9258 16.4688ZM71.5684 16.4688H72.5352L72.6934 21.6719V25H71.5684V16.4688ZM79.0918 16.4688H80.0586V25H78.9336V21.6719L79.0918 16.4688ZM83.6621 24.3438L85.4258 18.6602H86.5859L84.043 25.9785C83.9844 26.1348 83.9062 26.3027 83.8086 26.4824C83.7148 26.666 83.5938 26.8398 83.4453 27.0039C83.2969 27.168 83.1172 27.3008 82.9062 27.4023C82.6992 27.5078 82.4512 27.5605 82.1621 27.5605C82.0762 27.5605 81.9668 27.5488 81.834 27.5254C81.7012 27.502 81.6074 27.4824 81.5527 27.4668L81.5469 26.5879C81.5781 26.5918 81.627 26.5957 81.6934 26.5996C81.7637 26.6074 81.8125 26.6113 81.8398 26.6113C82.0859 26.6113 82.2949 26.5781 82.4668 26.5117C82.6387 26.4492 82.7832 26.3418 82.9004 26.1895C83.0215 26.041 83.125 25.8359 83.2109 25.5742L83.6621 24.3438ZM82.3672 18.6602L84.0137 23.582L84.2949 24.7246L83.5156 25.123L81.1836 18.6602H82.3672ZM93.0137 25H91.2324L91.2441 24.0801H93.0137C93.623 24.0801 94.1309 23.9531 94.5371 23.6992C94.9434 23.4414 95.248 23.082 95.4512 22.6211C95.6582 22.1562 95.7617 21.6133 95.7617 20.9922V20.4707C95.7617 19.9824 95.7031 19.5488 95.5859 19.1699C95.4688 18.7871 95.2969 18.4648 95.0703 18.2031C94.8438 17.9375 94.5664 17.7363 94.2383 17.5996C93.9141 17.4629 93.541 17.3945 93.1191 17.3945H91.1973V16.4688H93.1191C93.6777 16.4688 94.1875 16.5625 94.6484 16.75C95.1094 16.9336 95.5059 17.2012 95.8379 17.5527C96.1738 17.9004 96.4316 18.3223 96.6113 18.8184C96.791 19.3105 96.8809 19.8652 96.8809 20.4824V20.9922C96.8809 21.6094 96.791 22.166 96.6113 22.6621C96.4316 23.1543 96.1719 23.5742 95.832 23.9219C95.4961 24.2695 95.0898 24.5371 94.6133 24.7246C94.1406 24.9082 93.6074 25 93.0137 25ZM91.8359 16.4688V25H90.7051V16.4688H91.8359ZM99.5 19.6562V25H98.416V18.6602H99.4707L99.5 19.6562ZM101.48 18.625L101.475 19.6328C101.385 19.6133 101.299 19.6016 101.217 19.5977C101.139 19.5898 101.049 19.5859 100.947 19.5859C100.697 19.5859 100.477 19.625 100.285 19.7031C100.094 19.7812 99.9316 19.8906 99.7988 20.0312C99.666 20.1719 99.5605 20.3398 99.4824 20.5352C99.4082 20.7266 99.3594 20.9375 99.3359 21.168L99.0312 21.3438C99.0312 20.9609 99.0684 20.6016 99.1426 20.2656C99.2207 19.9297 99.3398 19.6328 99.5 19.375C99.6602 19.1133 99.8633 18.9102 100.109 18.7656C100.359 18.6172 100.656 18.543 101 18.543C101.078 18.543 101.168 18.5527 101.27 18.5723C101.371 18.5879 101.441 18.6055 101.48 18.625ZM103.66 18.6602V25H102.57V18.6602H103.66ZM102.488 16.9785C102.488 16.8027 102.541 16.6543 102.646 16.5332C102.756 16.4121 102.916 16.3516 103.127 16.3516C103.334 16.3516 103.492 16.4121 103.602 16.5332C103.715 16.6543 103.771 16.8027 103.771 16.9785C103.771 17.1465 103.715 17.291 103.602 17.4121C103.492 17.5293 103.334 17.5879 103.127 17.5879C102.916 17.5879 102.756 17.5293 102.646 17.4121C102.541 17.291 102.488 17.1465 102.488 16.9785ZM105.395 16H106.484V23.7695L106.391 25H105.395V16ZM110.768 21.7773V21.9004C110.768 22.3613 110.713 22.7891 110.604 23.1836C110.494 23.5742 110.334 23.9141 110.123 24.2031C109.912 24.4922 109.654 24.7168 109.35 24.877C109.045 25.0371 108.695 25.1172 108.301 25.1172C107.898 25.1172 107.545 25.0488 107.24 24.9121C106.939 24.7715 106.686 24.5703 106.479 24.3086C106.271 24.0469 106.105 23.7305 105.98 23.3594C105.859 22.9883 105.775 22.5703 105.729 22.1055V21.5664C105.775 21.0977 105.859 20.6777 105.98 20.3066C106.105 19.9355 106.271 19.6191 106.479 19.3574C106.686 19.0918 106.939 18.8906 107.24 18.7539C107.541 18.6133 107.891 18.543 108.289 18.543C108.688 18.543 109.041 18.6211 109.35 18.7773C109.658 18.9297 109.916 19.1484 110.123 19.4336C110.334 19.7188 110.494 20.0605 110.604 20.459C110.713 20.8535 110.768 21.293 110.768 21.7773ZM109.678 21.9004V21.7773C109.678 21.4609 109.648 21.1641 109.59 20.8867C109.531 20.6055 109.438 20.3594 109.309 20.1484C109.18 19.9336 109.01 19.7656 108.799 19.6445C108.588 19.5195 108.328 19.457 108.02 19.457C107.746 19.457 107.508 19.5039 107.305 19.5977C107.105 19.6914 106.936 19.8184 106.795 19.9785C106.654 20.1348 106.539 20.3145 106.449 20.5176C106.363 20.7168 106.299 20.9238 106.256 21.1387V22.5508C106.318 22.8242 106.42 23.0879 106.561 23.3418C106.705 23.5918 106.896 23.7969 107.135 23.957C107.377 24.1172 107.676 24.1973 108.031 24.1973C108.324 24.1973 108.574 24.1387 108.781 24.0215C108.992 23.9004 109.162 23.7344 109.291 23.5234C109.424 23.3125 109.521 23.0684 109.584 22.791C109.646 22.5137 109.678 22.2168 109.678 21.9004ZM112.133 16H113.223V23.7695L113.129 25H112.133V16ZM117.506 21.7773V21.9004C117.506 22.3613 117.451 22.7891 117.342 23.1836C117.232 23.5742 117.072 23.9141 116.861 24.2031C116.65 24.4922 116.393 24.7168 116.088 24.877C115.783 25.0371 115.434 25.1172 115.039 25.1172C114.637 25.1172 114.283 25.0488 113.979 24.9121C113.678 24.7715 113.424 24.5703 113.217 24.3086C113.01 24.0469 112.844 23.7305 112.719 23.3594C112.598 22.9883 112.514 22.5703 112.467 22.1055V21.5664C112.514 21.0977 112.598 20.6777 112.719 20.3066C112.844 19.9355 113.01 19.6191 113.217 19.3574C113.424 19.0918 113.678 18.8906 113.979 18.7539C114.279 18.6133 114.629 18.543 115.027 18.543C115.426 18.543 115.779 18.6211 116.088 18.7773C116.396 18.9297 116.654 19.1484 116.861 19.4336C117.072 19.7188 117.232 20.0605 117.342 20.459C117.451 20.8535 117.506 21.293 117.506 21.7773ZM116.416 21.9004V21.7773C116.416 21.4609 116.387 21.1641 116.328 20.8867C116.27 20.6055 116.176 20.3594 116.047 20.1484C115.918 19.9336 115.748 19.7656 115.537 19.6445C115.326 19.5195 115.066 19.457 114.758 19.457C114.484 19.457 114.246 19.5039 114.043 19.5977C113.844 19.6914 113.674 19.8184 113.533 19.9785C113.393 20.1348 113.277 20.3145 113.188 20.5176C113.102 20.7168 113.037 20.9238 112.994 21.1387V22.5508C113.057 22.8242 113.158 23.0879 113.299 23.3418C113.443 23.5918 113.635 23.7969 113.873 23.957C114.115 24.1172 114.414 24.1973 114.77 24.1973C115.062 24.1973 115.312 24.1387 115.52 24.0215C115.73 23.9004 115.9 23.7344 116.029 23.5234C116.162 23.3125 116.26 23.0684 116.322 22.791C116.385 22.5137 116.416 22.2168 116.416 21.9004ZM118.871 16H119.961V23.7695L119.867 25H118.871V16ZM124.244 21.7773V21.9004C124.244 22.3613 124.189 22.7891 124.08 23.1836C123.971 23.5742 123.811 23.9141 123.6 24.2031C123.389 24.4922 123.131 24.7168 122.826 24.877C122.521 25.0371 122.172 25.1172 121.777 25.1172C121.375 25.1172 121.021 25.0488 120.717 24.9121C120.416 24.7715 120.162 24.5703 119.955 24.3086C119.748 24.0469 119.582 23.7305 119.457 23.3594C119.336 22.9883 119.252 22.5703 119.205 22.1055V21.5664C119.252 21.0977 119.336 20.6777 119.457 20.3066C119.582 19.9355 119.748 19.6191 119.955 19.3574C120.162 19.0918 120.416 18.8906 120.717 18.7539C121.018 18.6133 121.367 18.543 121.766 18.543C122.164 18.543 122.518 18.6211 122.826 18.7773C123.135 18.9297 123.393 19.1484 123.6 19.4336C123.811 19.7188 123.971 20.0605 124.08 20.459C124.189 20.8535 124.244 21.293 124.244 21.7773ZM123.154 21.9004V21.7773C123.154 21.4609 123.125 21.1641 123.066 20.8867C123.008 20.6055 122.914 20.3594 122.785 20.1484C122.656 19.9336 122.486 19.7656 122.275 19.6445C122.064 19.5195 121.805 19.457 121.496 19.457C121.223 19.457 120.984 19.5039 120.781 19.5977C120.582 19.6914 120.412 19.8184 120.271 19.9785C120.131 20.1348 120.016 20.3145 119.926 20.5176C119.84 20.7168 119.775 20.9238 119.732 21.1387V22.5508C119.795 22.8242 119.896 23.0879 120.037 23.3418C120.182 23.5918 120.373 23.7969 120.611 23.957C120.854 24.1172 121.152 24.1973 121.508 24.1973C121.801 24.1973 122.051 24.1387 122.258 24.0215C122.469 23.9004 122.639 23.7344 122.768 23.5234C122.9 23.3125 122.998 23.0684 123.061 22.791C123.123 22.5137 123.154 22.2168 123.154 21.9004ZM126.793 16V25H125.703V16H126.793ZM131.164 25.1172C130.723 25.1172 130.322 25.043 129.963 24.8945C129.607 24.7422 129.301 24.5293 129.043 24.2559C128.789 23.9824 128.594 23.6582 128.457 23.2832C128.32 22.9082 128.252 22.498 128.252 22.0527V21.8066C128.252 21.291 128.328 20.832 128.48 20.4297C128.633 20.0234 128.84 19.6797 129.102 19.3984C129.363 19.1172 129.66 18.9043 129.992 18.7598C130.324 18.6152 130.668 18.543 131.023 18.543C131.477 18.543 131.867 18.6211 132.195 18.7773C132.527 18.9336 132.799 19.1523 133.01 19.4336C133.221 19.7109 133.377 20.0391 133.479 20.418C133.58 20.793 133.631 21.2031 133.631 21.6484V22.1348H128.896V21.25H132.547V21.168C132.531 20.8867 132.473 20.6133 132.371 20.3477C132.273 20.082 132.117 19.8633 131.902 19.6914C131.688 19.5195 131.395 19.4336 131.023 19.4336C130.777 19.4336 130.551 19.4863 130.344 19.5918C130.137 19.6934 129.959 19.8457 129.811 20.0488C129.662 20.252 129.547 20.5 129.465 20.793C129.383 21.0859 129.342 21.4238 129.342 21.8066V22.0527C129.342 22.3535 129.383 22.6367 129.465 22.9023C129.551 23.1641 129.674 23.3945 129.834 23.5938C129.998 23.793 130.195 23.9492 130.426 24.0625C130.66 24.1758 130.926 24.2324 131.223 24.2324C131.605 24.2324 131.93 24.1543 132.195 23.998C132.461 23.8418 132.693 23.6328 132.893 23.3711L133.549 23.8926C133.412 24.0996 133.238 24.2969 133.027 24.4844C132.816 24.6719 132.557 24.8242 132.248 24.9414C131.943 25.0586 131.582 25.1172 131.164 25.1172Z" fill="white"/>
</svg>
