<svg width="193" height="60" viewBox="0 0 193 60" fill="none" xmlns="http://www.w3.org/2000/svg">
<g filter="url(#filter0_d_1_3778)">
<rect x="2" y="1" width="189" height="56" rx="8" fill="#E62872"/>
<path fill-rule="evenodd" clip-rule="evenodd" d="M30 17C23.3753 17 18 22.3753 18 29C18 35.6248 23.3753 41 30 41C36.6117 41 42 35.6248 42 29C42 22.3753 36.6117 17 30 17ZM37.9262 22.5315C39.3579 24.2755 40.217 26.5011 40.243 28.9089C39.9046 28.8439 36.5206 28.154 33.1106 28.5835C33.0325 28.4143 32.9675 28.2321 32.8894 28.0499C32.6811 27.5554 32.4469 27.0477 32.2126 26.5662C35.9869 25.0304 37.705 22.8178 37.9262 22.5315ZM30 18.7701C32.603 18.7701 34.9848 19.7462 36.7939 21.3471C36.6117 21.6074 35.0629 23.6768 31.4186 25.0434C29.7397 21.9588 27.8786 19.4338 27.5922 19.0434C28.3601 18.8612 29.1671 18.7701 30 18.7701ZM25.6399 19.7332C25.9132 20.0976 27.7354 22.6356 29.4404 25.6551C24.6508 26.9306 20.4208 26.9046 19.9653 26.9046C20.6291 23.7289 22.7766 21.0868 25.6399 19.7332ZM19.744 29.0131C19.744 28.9089 19.744 28.8048 19.744 28.7007C20.1866 28.7136 25.1584 28.7787 30.2733 27.243C30.5727 27.8156 30.846 28.4013 31.1063 28.9869C30.9761 29.026 30.8329 29.0651 30.7028 29.1041C25.4187 30.8091 22.6074 35.4685 22.3731 35.859C20.7462 34.0499 19.744 31.6421 19.744 29.0131ZM30 39.256C27.6312 39.256 25.4447 38.449 23.7137 37.0954C23.8959 36.718 25.9783 32.7094 31.757 30.692C31.783 30.679 31.7961 30.679 31.8221 30.666C33.2668 34.4013 33.8525 37.5379 34.0087 38.436C32.7722 38.9696 31.4186 39.256 30 39.256ZM35.7136 37.4989C35.6096 36.8742 35.0629 33.8807 33.7223 30.1974C36.9371 29.6898 39.7484 30.5228 40.0998 30.6399C39.6573 33.4902 38.0173 35.9501 35.7136 37.4989Z" fill="white"/>
<path d="M58.9922 32.2734L62.3438 22.625H63.9766L59.7656 34H58.6016L58.9922 32.2734ZM55.8594 22.625L59.1797 32.2734L59.5938 34H58.4297L54.2266 22.625H55.8594ZM66.8594 25.5469V34H65.4062V25.5469H66.8594ZM65.2969 23.3047C65.2969 23.0703 65.3672 22.8724 65.5078 22.7109C65.6536 22.5495 65.8672 22.4688 66.1484 22.4688C66.4245 22.4688 66.6354 22.5495 66.7812 22.7109C66.9323 22.8724 67.0078 23.0703 67.0078 23.3047C67.0078 23.5286 66.9323 23.7214 66.7812 23.8828C66.6354 24.0391 66.4245 24.1172 66.1484 24.1172C65.8672 24.1172 65.6536 24.0391 65.5078 23.8828C65.3672 23.7214 65.2969 23.5286 65.2969 23.3047ZM74.1016 31.7578C74.1016 31.5495 74.0547 31.3568 73.9609 31.1797C73.8724 30.9974 73.6875 30.8333 73.4062 30.6875C73.1302 30.5365 72.7135 30.4062 72.1562 30.2969C71.6875 30.1979 71.263 30.0807 70.8828 29.9453C70.5078 29.8099 70.1875 29.6458 69.9219 29.4531C69.6615 29.2604 69.4609 29.0339 69.3203 28.7734C69.1797 28.513 69.1094 28.2083 69.1094 27.8594C69.1094 27.526 69.1823 27.2109 69.3281 26.9141C69.4792 26.6172 69.6901 26.3542 69.9609 26.125C70.237 25.8958 70.5677 25.7161 70.9531 25.5859C71.3385 25.4557 71.7682 25.3906 72.2422 25.3906C72.9193 25.3906 73.4974 25.5104 73.9766 25.75C74.4557 25.9896 74.8229 26.3099 75.0781 26.7109C75.3333 27.1068 75.4609 27.5469 75.4609 28.0312H74.0156C74.0156 27.7969 73.9453 27.5703 73.8047 27.3516C73.6693 27.1276 73.4688 26.9427 73.2031 26.7969C72.9427 26.651 72.6224 26.5781 72.2422 26.5781C71.8411 26.5781 71.5156 26.6406 71.2656 26.7656C71.0208 26.8854 70.8411 27.0391 70.7266 27.2266C70.6172 27.4141 70.5625 27.612 70.5625 27.8203C70.5625 27.9766 70.5885 28.1172 70.6406 28.2422C70.6979 28.362 70.7969 28.474 70.9375 28.5781C71.0781 28.6771 71.276 28.7708 71.5312 28.8594C71.7865 28.9479 72.112 29.0365 72.5078 29.125C73.2005 29.2812 73.7708 29.4688 74.2188 29.6875C74.6667 29.9062 75 30.1745 75.2188 30.4922C75.4375 30.8099 75.5469 31.1953 75.5469 31.6484C75.5469 32.0182 75.4688 32.3568 75.3125 32.6641C75.1615 32.9714 74.9401 33.237 74.6484 33.4609C74.362 33.6797 74.0182 33.8516 73.6172 33.9766C73.2214 34.0964 72.776 34.1562 72.2812 34.1562C71.5365 34.1562 70.9062 34.0234 70.3906 33.7578C69.875 33.4922 69.4844 33.1484 69.2188 32.7266C68.9531 32.3047 68.8203 31.8594 68.8203 31.3906H70.2734C70.2943 31.7865 70.4089 32.1016 70.6172 32.3359C70.8255 32.5651 71.0807 32.7292 71.3828 32.8281C71.6849 32.9219 71.9844 32.9688 72.2812 32.9688C72.6771 32.9688 73.0078 32.9167 73.2734 32.8125C73.5443 32.7083 73.75 32.5651 73.8906 32.3828C74.0312 32.2005 74.1016 31.9922 74.1016 31.7578ZM79.0156 25.5469V34H77.5625V25.5469H79.0156ZM77.4531 23.3047C77.4531 23.0703 77.5234 22.8724 77.6641 22.7109C77.8099 22.5495 78.0234 22.4688 78.3047 22.4688C78.5807 22.4688 78.7917 22.5495 78.9375 22.7109C79.0885 22.8724 79.1641 23.0703 79.1641 23.3047C79.1641 23.5286 79.0885 23.7214 78.9375 23.8828C78.7917 24.0391 78.5807 24.1172 78.3047 24.1172C78.0234 24.1172 77.8099 24.0391 77.6641 23.8828C77.5234 23.7214 77.4531 23.5286 77.4531 23.3047ZM84.875 25.5469V26.6562H80.3047V25.5469H84.875ZM81.8516 23.4922H83.2969V31.9062C83.2969 32.1927 83.3411 32.4089 83.4297 32.5547C83.5182 32.7005 83.6328 32.7969 83.7734 32.8438C83.9141 32.8906 84.0651 32.9141 84.2266 32.9141C84.3464 32.9141 84.4714 32.9036 84.6016 32.8828C84.737 32.8568 84.8385 32.8359 84.9062 32.8203L84.9141 34C84.7995 34.0365 84.6484 34.0703 84.4609 34.1016C84.2786 34.138 84.0573 34.1562 83.7969 34.1562C83.4427 34.1562 83.1172 34.0859 82.8203 33.9453C82.5234 33.8047 82.2865 33.5703 82.1094 33.2422C81.9375 32.9089 81.8516 32.4609 81.8516 31.8984V23.4922ZM91.2344 22.625H92.6953L96.4219 31.8984L100.141 22.625H101.609L96.9844 34H95.8438L91.2344 22.625ZM90.7578 22.625H92.0469L92.2578 29.5625V34H90.7578V22.625ZM100.789 22.625H102.078V34H100.578V29.5625L100.789 22.625ZM106.883 33.125L109.234 25.5469H110.781L107.391 35.3047C107.312 35.513 107.208 35.737 107.078 35.9766C106.953 36.2214 106.792 36.4531 106.594 36.6719C106.396 36.8906 106.156 37.0677 105.875 37.2031C105.599 37.3438 105.268 37.4141 104.883 37.4141C104.768 37.4141 104.622 37.3984 104.445 37.3672C104.268 37.3359 104.143 37.3099 104.07 37.2891L104.062 36.1172C104.104 36.1224 104.169 36.1276 104.258 36.1328C104.352 36.1432 104.417 36.1484 104.453 36.1484C104.781 36.1484 105.06 36.1042 105.289 36.0156C105.518 35.9323 105.711 35.7891 105.867 35.5859C106.029 35.388 106.167 35.1146 106.281 34.7656L106.883 33.125ZM105.156 25.5469L107.352 32.1094L107.727 33.6328L106.688 34.1641L103.578 25.5469H105.156ZM119.352 34H116.977L116.992 32.7734H119.352C120.164 32.7734 120.841 32.6042 121.383 32.2656C121.924 31.9219 122.331 31.4427 122.602 30.8281C122.878 30.2083 123.016 29.4844 123.016 28.6562V27.9609C123.016 27.3099 122.938 26.7318 122.781 26.2266C122.625 25.7161 122.396 25.2865 122.094 24.9375C121.792 24.5833 121.422 24.3151 120.984 24.1328C120.552 23.9505 120.055 23.8594 119.492 23.8594H116.93V22.625H119.492C120.237 22.625 120.917 22.75 121.531 23C122.146 23.2448 122.674 23.6016 123.117 24.0703C123.565 24.5339 123.909 25.0964 124.148 25.7578C124.388 26.4141 124.508 27.1536 124.508 27.9766V28.6562C124.508 29.4792 124.388 30.2214 124.148 30.8828C123.909 31.5391 123.562 32.099 123.109 32.5625C122.661 33.026 122.12 33.3828 121.484 33.6328C120.854 33.8776 120.143 34 119.352 34ZM117.781 22.625V34H116.273V22.625H117.781ZM128 26.875V34H126.555V25.5469H127.961L128 26.875ZM130.641 25.5L130.633 26.8438C130.513 26.8177 130.398 26.8021 130.289 26.7969C130.185 26.7865 130.065 26.7812 129.93 26.7812C129.596 26.7812 129.302 26.8333 129.047 26.9375C128.792 27.0417 128.576 27.1875 128.398 27.375C128.221 27.5625 128.081 27.7865 127.977 28.0469C127.878 28.3021 127.812 28.5833 127.781 28.8906L127.375 29.125C127.375 28.6146 127.424 28.1354 127.523 27.6875C127.628 27.2396 127.786 26.8438 128 26.5C128.214 26.151 128.484 25.8802 128.812 25.6875C129.146 25.4896 129.542 25.3906 130 25.3906C130.104 25.3906 130.224 25.4036 130.359 25.4297C130.495 25.4505 130.589 25.474 130.641 25.5ZM133.547 25.5469V34H132.094V25.5469H133.547ZM131.984 23.3047C131.984 23.0703 132.055 22.8724 132.195 22.7109C132.341 22.5495 132.555 22.4688 132.836 22.4688C133.112 22.4688 133.323 22.5495 133.469 22.7109C133.62 22.8724 133.695 23.0703 133.695 23.3047C133.695 23.5286 133.62 23.7214 133.469 23.8828C133.323 24.0391 133.112 24.1172 132.836 24.1172C132.555 24.1172 132.341 24.0391 132.195 23.8828C132.055 23.7214 131.984 23.5286 131.984 23.3047ZM135.859 22H137.312V32.3594L137.188 34H135.859V22ZM143.023 29.7031V29.8672C143.023 30.4818 142.951 31.0521 142.805 31.5781C142.659 32.099 142.445 32.5521 142.164 32.9375C141.883 33.3229 141.539 33.6224 141.133 33.8359C140.727 34.0495 140.26 34.1562 139.734 34.1562C139.198 34.1562 138.727 34.0651 138.32 33.8828C137.919 33.6953 137.581 33.4271 137.305 33.0781C137.029 32.7292 136.807 32.3073 136.641 31.8125C136.479 31.3177 136.367 30.7604 136.305 30.1406V29.4219C136.367 28.7969 136.479 28.237 136.641 27.7422C136.807 27.2474 137.029 26.8255 137.305 26.4766C137.581 26.1224 137.919 25.8542 138.32 25.6719C138.721 25.4844 139.188 25.3906 139.719 25.3906C140.25 25.3906 140.721 25.4948 141.133 25.7031C141.544 25.9062 141.888 26.1979 142.164 26.5781C142.445 26.9583 142.659 27.4141 142.805 27.9453C142.951 28.4714 143.023 29.0573 143.023 29.7031ZM141.57 29.8672V29.7031C141.57 29.2812 141.531 28.8854 141.453 28.5156C141.375 28.1406 141.25 27.8125 141.078 27.5312C140.906 27.2448 140.68 27.0208 140.398 26.8594C140.117 26.6927 139.771 26.6094 139.359 26.6094C138.995 26.6094 138.677 26.6719 138.406 26.7969C138.141 26.9219 137.914 27.0911 137.727 27.3047C137.539 27.513 137.385 27.7526 137.266 28.0234C137.151 28.2891 137.065 28.5651 137.008 28.8516V30.7344C137.091 31.099 137.227 31.4505 137.414 31.7891C137.607 32.1224 137.862 32.3958 138.18 32.6094C138.503 32.8229 138.901 32.9297 139.375 32.9297C139.766 32.9297 140.099 32.8516 140.375 32.6953C140.656 32.5339 140.883 32.3125 141.055 32.0312C141.232 31.75 141.362 31.4245 141.445 31.0547C141.529 30.6849 141.57 30.2891 141.57 29.8672ZM144.844 22H146.297V32.3594L146.172 34H144.844V22ZM152.008 29.7031V29.8672C152.008 30.4818 151.935 31.0521 151.789 31.5781C151.643 32.099 151.43 32.5521 151.148 32.9375C150.867 33.3229 150.523 33.6224 150.117 33.8359C149.711 34.0495 149.245 34.1562 148.719 34.1562C148.182 34.1562 147.711 34.0651 147.305 33.8828C146.904 33.6953 146.565 33.4271 146.289 33.0781C146.013 32.7292 145.792 32.3073 145.625 31.8125C145.464 31.3177 145.352 30.7604 145.289 30.1406V29.4219C145.352 28.7969 145.464 28.237 145.625 27.7422C145.792 27.2474 146.013 26.8255 146.289 26.4766C146.565 26.1224 146.904 25.8542 147.305 25.6719C147.706 25.4844 148.172 25.3906 148.703 25.3906C149.234 25.3906 149.706 25.4948 150.117 25.7031C150.529 25.9062 150.872 26.1979 151.148 26.5781C151.43 26.9583 151.643 27.4141 151.789 27.9453C151.935 28.4714 152.008 29.0573 152.008 29.7031ZM150.555 29.8672V29.7031C150.555 29.2812 150.516 28.8854 150.438 28.5156C150.359 28.1406 150.234 27.8125 150.062 27.5312C149.891 27.2448 149.664 27.0208 149.383 26.8594C149.102 26.6927 148.755 26.6094 148.344 26.6094C147.979 26.6094 147.661 26.6719 147.391 26.7969C147.125 26.9219 146.898 27.0911 146.711 27.3047C146.523 27.513 146.37 27.7526 146.25 28.0234C146.135 28.2891 146.049 28.5651 145.992 28.8516V30.7344C146.076 31.099 146.211 31.4505 146.398 31.7891C146.591 32.1224 146.846 32.3958 147.164 32.6094C147.487 32.8229 147.885 32.9297 148.359 32.9297C148.75 32.9297 149.083 32.8516 149.359 32.6953C149.641 32.5339 149.867 32.3125 150.039 32.0312C150.216 31.75 150.346 31.4245 150.43 31.0547C150.513 30.6849 150.555 30.2891 150.555 29.8672ZM153.828 22H155.281V32.3594L155.156 34H153.828V22ZM160.992 29.7031V29.8672C160.992 30.4818 160.919 31.0521 160.773 31.5781C160.628 32.099 160.414 32.5521 160.133 32.9375C159.852 33.3229 159.508 33.6224 159.102 33.8359C158.695 34.0495 158.229 34.1562 157.703 34.1562C157.167 34.1562 156.695 34.0651 156.289 33.8828C155.888 33.6953 155.549 33.4271 155.273 33.0781C154.997 32.7292 154.776 32.3073 154.609 31.8125C154.448 31.3177 154.336 30.7604 154.273 30.1406V29.4219C154.336 28.7969 154.448 28.237 154.609 27.7422C154.776 27.2474 154.997 26.8255 155.273 26.4766C155.549 26.1224 155.888 25.8542 156.289 25.6719C156.69 25.4844 157.156 25.3906 157.688 25.3906C158.219 25.3906 158.69 25.4948 159.102 25.7031C159.513 25.9062 159.857 26.1979 160.133 26.5781C160.414 26.9583 160.628 27.4141 160.773 27.9453C160.919 28.4714 160.992 29.0573 160.992 29.7031ZM159.539 29.8672V29.7031C159.539 29.2812 159.5 28.8854 159.422 28.5156C159.344 28.1406 159.219 27.8125 159.047 27.5312C158.875 27.2448 158.648 27.0208 158.367 26.8594C158.086 26.6927 157.74 26.6094 157.328 26.6094C156.964 26.6094 156.646 26.6719 156.375 26.7969C156.109 26.9219 155.883 27.0911 155.695 27.3047C155.508 27.513 155.354 27.7526 155.234 28.0234C155.12 28.2891 155.034 28.5651 154.977 28.8516V30.7344C155.06 31.099 155.195 31.4505 155.383 31.7891C155.576 32.1224 155.831 32.3958 156.148 32.6094C156.471 32.8229 156.87 32.9297 157.344 32.9297C157.734 32.9297 158.068 32.8516 158.344 32.6953C158.625 32.5339 158.852 32.3125 159.023 32.0312C159.201 31.75 159.331 31.4245 159.414 31.0547C159.497 30.6849 159.539 30.2891 159.539 29.8672ZM164.391 22V34H162.938V22H164.391ZM170.219 34.1562C169.63 34.1562 169.096 34.0573 168.617 33.8594C168.143 33.6562 167.734 33.3724 167.391 33.0078C167.052 32.6432 166.792 32.2109 166.609 31.7109C166.427 31.2109 166.336 30.6641 166.336 30.0703V29.7422C166.336 29.0547 166.438 28.4427 166.641 27.9062C166.844 27.3646 167.12 26.9062 167.469 26.5312C167.818 26.1562 168.214 25.8724 168.656 25.6797C169.099 25.487 169.557 25.3906 170.031 25.3906C170.635 25.3906 171.156 25.4948 171.594 25.7031C172.036 25.9115 172.398 26.2031 172.68 26.5781C172.961 26.9479 173.169 27.3854 173.305 27.8906C173.44 28.3906 173.508 28.9375 173.508 29.5312V30.1797H167.195V29H172.062V28.8906C172.042 28.5156 171.964 28.151 171.828 27.7969C171.698 27.4427 171.49 27.151 171.203 26.9219C170.917 26.6927 170.526 26.5781 170.031 26.5781C169.703 26.5781 169.401 26.6484 169.125 26.7891C168.849 26.9245 168.612 27.1276 168.414 27.3984C168.216 27.6693 168.062 28 167.953 28.3906C167.844 28.7812 167.789 29.2318 167.789 29.7422V30.0703C167.789 30.4714 167.844 30.849 167.953 31.2031C168.068 31.5521 168.232 31.8594 168.445 32.125C168.664 32.3906 168.927 32.599 169.234 32.75C169.547 32.901 169.901 32.9766 170.297 32.9766C170.807 32.9766 171.24 32.8724 171.594 32.6641C171.948 32.4557 172.258 32.1771 172.523 31.8281L173.398 32.5234C173.216 32.7995 172.984 33.0625 172.703 33.3125C172.422 33.5625 172.076 33.7656 171.664 33.9219C171.258 34.0781 170.776 34.1562 170.219 34.1562Z" fill="white"/>
</g>
<defs>
<filter id="filter0_d_1_3778" x="0" y="0" width="193" height="60" filterUnits="userSpaceOnUse" color-interpolation-filters="sRGB">
<feFlood flood-opacity="0" result="BackgroundImageFix"/>
<feColorMatrix in="SourceAlpha" type="matrix" values="0 0 0 0 0 0 0 0 0 0 0 0 0 0 0 0 0 0 127 0" result="hardAlpha"/>
<feOffset dy="1"/>
<feGaussianBlur stdDeviation="1"/>
<feColorMatrix type="matrix" values="0 0 0 0 0.0627451 0 0 0 0 0.0941176 0 0 0 0 0.156863 0 0 0 0.05 0"/>
<feBlend mode="normal" in2="BackgroundImageFix" result="effect1_dropShadow_1_3778"/>
<feBlend mode="normal" in="SourceGraphic" in2="effect1_dropShadow_1_3778" result="shape"/>
</filter>
</defs>
</svg>
