<svg width="140" height="28" viewBox="0 0 140 28" fill="none" xmlns="http://www.w3.org/2000/svg">
<g clip-path="url(#clip0_3_481)">
<path d="M14.0002 20.1486L18.8419 23.077C19.7285 23.6136 20.8135 22.8203 20.5802 21.817L19.2969 16.3103L23.5785 12.6003C24.3602 11.9236 23.9402 10.6403 22.9135 10.5586L17.2785 10.0803L15.0735 4.87696C14.6769 3.93196 13.3235 3.93196 12.9269 4.87696L10.7219 10.0686L5.08687 10.547C4.06021 10.6286 3.64021 11.912 4.42187 12.5886L8.70354 16.2986L7.42021 21.8053C7.18687 22.8086 8.27187 23.602 9.15854 23.0653L14.0002 20.1486Z" fill="#FFD429"/>
<path d="M42.0002 20.1486L46.8419 23.077C47.7285 23.6136 48.8135 22.8203 48.5802 21.817L47.2969 16.3103L51.5785 12.6003C52.3602 11.9236 51.9402 10.6403 50.9135 10.5586L45.2785 10.0803L43.0735 4.87696C42.6769 3.93196 41.3235 3.93196 40.9269 4.87696L38.7219 10.0686L33.0869 10.547C32.0602 10.6286 31.6402 11.912 32.4219 12.5886L36.7035 16.2986L35.4202 21.8053C35.1869 22.8086 36.2719 23.602 37.1585 23.0653L42.0002 20.1486Z" fill="#FFD429"/>
<path d="M70.0002 20.1486L74.8419 23.077C75.7285 23.6136 76.8135 22.8203 76.5802 21.817L75.2969 16.3103L79.5785 12.6003C80.3602 11.9236 79.9402 10.6403 78.9135 10.5586L73.2785 10.0803L71.0735 4.87696C70.6769 3.93196 69.3235 3.93196 68.9269 4.87696L66.7219 10.0686L61.0869 10.547C60.0602 10.6286 59.6402 11.912 60.4219 12.5886L64.7035 16.2986L63.4202 21.8053C63.1869 22.8086 64.2719 23.602 65.1585 23.0653L70.0002 20.1486Z" fill="#FFD429"/>
<path d="M98.0002 20.1486L102.842 23.077C103.729 23.6136 104.814 22.8203 104.58 21.817L103.297 16.3103L107.579 12.6003C108.36 11.9236 107.94 10.6403 106.914 10.5586L101.279 10.0803L99.0735 4.87696C98.6769 3.93196 97.3235 3.93196 96.9269 4.87696L94.7219 10.0686L89.0869 10.547C88.0602 10.6286 87.6402 11.912 88.4219 12.5886L92.7035 16.2986L91.4202 21.8053C91.1869 22.8086 92.2719 23.602 93.1585 23.0653L98.0002 20.1486Z" fill="#FFD429"/>
<path d="M126 20.1486L130.842 23.077C131.729 23.6136 132.814 22.8203 132.58 21.817L131.297 16.3103L135.579 12.6003C136.36 11.9236 135.94 10.6403 134.914 10.5586L129.279 10.0803L127.074 4.87696C126.677 3.93196 125.324 3.93196 124.927 4.87696L122.722 10.0686L117.087 10.547C116.06 10.6286 115.64 11.912 116.422 12.5886L120.704 16.2986L119.42 21.8053C119.187 22.8086 120.272 23.602 121.159 23.0653L126 20.1486Z" fill="#FFD429"/>
</g>
<defs>
<clipPath id="clip0_3_481">
<rect width="140" height="28" fill="white" transform="translate(0 0.000244141)"/>
</clipPath>
</defs>
</svg>
